# xmcd
#
# Track frame offsets: 
#        150
#        15495
#        31902
#        45333
#        60849
#        76331
#        92100
#        106936
#        120973
#        138728
#        151975
#        168564
#
# Disc length: 2502 seconds
#
# Revision: 0
# Processed by: cddbd v1.5.1PL0 Copyright (c) Steve Scherf et al.
# Submitted via: ExactAudioCopy v0.95a5
#
DISCID=8409c40c
DTITLE=Jess McAvoy - En Masse
DYEAR=2004
DGENRE=Blues
TTITLE0=Simple
TTITLE1=Had The Pleasure
TTITLE2=So Long
TTITLE3=Waiting
TTITLE4=Till Light
TTITLE5=One Of The First
TTITLE6=Trading Kisses
TTITLE7=Strange Turn
TTITLE8=How They Feel
TTITLE9=Slow Down
TTITLE10=Too Much Too Ask
TTITLE11=Nomad
EXTD=
EXTT0=
EXTT1=
EXTT2=
EXTT3=
EXTT4=
EXTT5=
EXTT6=
EXTT7=
EXTT8=
EXTT9=
EXTT10=
EXTT11=
PLAYORDER=
